<?xml version="1.0" encoding="utf-8"?>
<!-- Generator: Adobe Illustrator 21.0.0, SVG Export Plug-In . SVG Version: 6.00 Build 0)  -->
<svg version="1.1" id="Слой_1" xmlns="http://www.w3.org/2000/svg" xmlns:xlink="http://www.w3.org/1999/xlink" x="0px" y="0px"
	 viewBox="0 0 1920 50" style="enable-background:new 0 0 1920 50;" xml:space="preserve">
<style type="text/css">
	.st0{fill:#372F24;}
</style>
<polygon class="st0" points="1896.7,6.1 1876.7,34.6 1856.8,6 1836.7,37.6 1816.7,6.1 1796.7,34.6 1776.8,6 1757,37.1 1737.3,6.1 
	1717.3,34.6 1697.4,6 1677.3,37.6 1657.3,6.1 1637.3,34.6 1617.4,6 1597.6,37.1 1577.9,6.1 1557.9,34.6 1538,6 1517.9,37.6 
	1497.8,6.1 1477.9,34.6 1458,6 1438.2,37.1 1418.5,6.1 1398.5,34.6 1378.6,6 1358.5,37.6 1338.4,6.1 1318.5,34.6 1298.6,6 
	1278.8,37.1 1259.1,6.1 1239.1,34.6 1219.2,6 1199.1,37.6 1179,6.1 1159.1,34.6 1139.2,6 1119.4,37.1 1099.7,6.1 1079.7,34.6 
	1059.8,6 1039.7,37.6 1019.6,6.1 999.7,34.6 979.8,6 960,37 940.3,6.1 920.4,34.6 900.5,6 880.3,37.6 860.3,6.1 840.4,34.6 820.4,6 
	800.6,37.1 780.9,6.1 761,34.6 741.1,6 720.9,37.6 700.9,6.1 680.9,34.6 661,6 641.2,37.1 621.5,6.1 601.6,34.6 581.7,6 561.5,37.6 
	541.5,6.1 521.5,34.6 501.6,6 481.8,37.1 462.1,6.1 442.2,34.6 422.3,6 402.1,37.6 382.1,6.1 362.1,34.6 342.2,6 322.4,37.1 
	302.7,6.1 282.8,34.6 262.9,6 242.7,37.6 222.7,6.1 202.7,34.6 182.8,6 163,37.1 143.3,6.1 123.3,34.6 103.4,6 83.3,37.6 63.3,6.1 
	43.3,34.6 23.4,6 0,42.8 8,42.8 24,16.4 41.9,42.8 44.7,42.8 62.4,16.4 78.5,42.8 88,42.8 104,16.4 121.9,42.8 124.7,42.8 
	142.5,16.4 158.5,42.8 159.4,42.8 166.6,42.8 167.4,42.8 183.4,16.4 201.3,42.8 204.1,42.8 221.8,16.4 237.9,42.8 247.4,42.8 
	263.4,16.4 281.3,42.8 284.1,42.8 301.9,16.4 317.9,42.8 318.8,42.8 326,42.8 326.8,42.8 342.8,16.4 360.7,42.8 363.5,42.8 
	381.2,16.4 397.3,42.8 406.8,42.8 422.8,16.4 440.7,42.8 443.6,42.8 461.3,16.4 477.4,42.8 478.2,42.8 485.4,42.8 486.2,42.8 
	502.2,16.4 520.1,42.8 522.9,42.8 540.7,16.4 556.7,42.8 566.2,42.8 582.2,16.4 600.1,42.8 603,42.8 620.7,16.4 636.8,42.8 
	637.6,42.8 644.8,42.8 645.6,42.8 661.6,16.4 679.5,42.8 682.3,42.8 700.1,16.4 716.1,42.8 725.6,42.8 741.6,16.4 759.5,42.8 
	762.4,42.8 780.1,16.4 796.2,42.8 797,42.8 804.2,42.8 805,42.8 821,16.4 838.9,42.8 841.7,42.8 859.5,16.4 875.5,42.8 885,42.8 
	901,16.4 918.9,42.8 921.8,42.8 939.5,16.4 955.6,42.8 956.4,42.8 963.6,42.8 964.3,42.8 980.3,16.4 998.2,42.8 1001.1,42.8 
	1018.8,16.4 1034.9,42.8 1044.4,42.8 1060.4,16.4 1078.2,42.8 1081.1,42.8 1098.8,16.4 1114.9,42.8 1115.8,42.8 1123,42.8 
	1123.7,42.8 1139.7,16.4 1157.6,42.8 1160.5,42.8 1178.2,16.4 1194.3,42.8 1203.8,42.8 1219.8,16.4 1237.6,42.8 1240.5,42.8 
	1258.2,16.4 1274.3,42.8 1275.2,42.8 1282.4,42.8 1283.1,42.8 1299.2,16.4 1317,42.8 1319.9,42.8 1337.6,16.4 1353.7,42.8 
	1363.2,42.8 1379.2,16.4 1397.1,42.8 1399.9,42.8 1417.6,16.4 1433.7,42.8 1434.6,42.8 1441.8,42.8 1442.5,42.8 1458.6,16.4 
	1476.4,42.8 1479.3,42.8 1497,16.4 1513.1,42.8 1522.6,42.8 1538.6,16.4 1556.5,42.8 1559.3,42.8 1577,16.4 1593.1,42.8 1594,42.8 
	1601.2,42.8 1601.9,42.8 1618,16.4 1635.8,42.8 1638.7,42.8 1656.4,16.4 1672.5,42.8 1682,42.8 1698,16.4 1715.9,42.8 1718.7,42.8 
	1736.4,16.4 1752.5,42.8 1753.4,42.8 1760.6,42.8 1761.4,42.8 1777.4,16.4 1795.2,42.8 1798.1,42.8 1815.8,16.4 1831.9,42.8 
	1841.4,42.8 1857.4,16.4 1875.3,42.8 1878.1,42.8 1895.8,16.4 1911.9,42.8 1920,42.8 "/>
</svg>
