<?xml version="1.0" encoding="utf-8"?>
<!-- Generator: Adobe Illustrator 21.0.0, SVG Export Plug-In . SVG Version: 6.00 Build 0)  -->
<svg version="1.1" id="Слой_1" xmlns="http://www.w3.org/2000/svg" xmlns:xlink="http://www.w3.org/1999/xlink" x="0px" y="0px"
	 viewBox="0 0 1920 1080" style="enable-background:new 0 0 1920 1080;" xml:space="preserve">
<style type="text/css">
	.st0{fill:none;stroke:#000000;stroke-miterlimit:10;}
</style>
<path class="st0" d="M0,540h853.8h90.5c25.7,0,51.1-6.5,73.3-19.4c6.4-3.7,12.4-7.8,16.8-11.9c22.8-21.5,35.4-50.3,49.1-78.6
	c50.5-73.5,37,245.6,94,207.8c4.8-4.8,8.2-10.9,9.9-17.6c14.8-56.4,55-362.6,105.2-310.7c4.6,4.8,7.7,10.9,9,17.4
	c38,186.5,20.2,467.2,41.5,473.9c25.3,9.3,56.7-566.4,76.1-508.4c19.5,58.5,55.9,579.4,88.9,390.4c27.5-157.8,32.7-358.5,87.8-203.9
	c13,36.6,47.8,60.9,86.7,60.9l207.9,0h263.6"/>
</svg>
