<?xml version="1.0" encoding="utf-8"?>
<!-- Generator: Adobe Illustrator 21.0.0, SVG Export Plug-In . SVG Version: 6.00 Build 0)  -->
<svg version="1.1" id="Слой_1" xmlns="http://www.w3.org/2000/svg" xmlns:xlink="http://www.w3.org/1999/xlink" x="0px" y="0px"
	 viewBox="0 0 500 500" style="enable-background:new 0 0 500 500;" xml:space="preserve">
<style type="text/css">
	.st0{fill:#383838;}
</style>
<g>
	<path class="st0" d="M4,448.5v-27.9h230V285.4h32.1v135.2h230v27.9H4z M266.4,78.1v8.6c0,15.5,3.1,30.4,9.4,44.8
		c6.3,14.4,14.7,28,25.2,40.9c10.5,12.9,22.7,24.9,36.5,35.9c13.8,11.1,28.3,20.8,43.5,29.3c15.2,8.5,30.6,15.6,46.2,21.3
		c15.6,5.7,30.4,9.7,44.4,11.9L449.1,297c-18.8-4.6-38.2-11.7-58.2-21.3c-20-9.6-39.1-21-57.4-34.3c-18.2-13.3-34.7-28.1-49.5-44.4
		c-14.7-16.3-26.3-33.4-34.6-51.3c-8.1,18.2-19.4,35.5-34,51.8c-14.6,16.3-30.9,31.1-49.1,44.2c-18.2,13.2-37.2,24.6-57.1,34.1
		c-19.9,9.6-39.3,16.7-58,21.3l-22.9-25.7c14.4-2.4,29.4-6.4,45.1-12.2c15.7-5.7,31-12.9,46.2-21.4c15.1-8.6,29.5-18.4,43.3-29.4
		c13.7-11.1,25.8-23,36.2-35.9c10.4-12.9,18.7-26.6,24.7-41c6.1-14.5,9.1-29.4,9.1-44.9v-8.6h-175V50.2h384.2v27.9H266.4z"/>
</g>
</svg>
